<svg xmlns="http://www.w3.org/2000/svg" data-type="solid" role="img" viewBox="0 0 16 16" fill="currentColor"><g><path d="M9.0505 8L15.4922 0.321472C15.6002 0.193865 15.5094 0 15.3425 0H13.3842C13.2689 0 13.1585 0.0515337 13.0824 0.139877L7.76952 6.47362L2.45664 0.139877C2.38302 0.0515337 2.27259 0 2.1548 0H0.196516C0.0296446 0 -0.0611531 0.193865 0.0468223 0.321472L6.48854 8L0.0468223 15.6785C0.0226348 15.707 0.00711763 15.7418 0.0021124 15.7788C-0.00289284 15.8158 0.00282412 15.8534 0.0185851 15.8873C0.0343462 15.9211 0.0594892 15.9497 0.0910286 15.9697C0.122568 15.9897 0.159179 16.0002 0.196516 16H2.1548C2.27013 16 2.38056 15.9485 2.45664 15.8601L7.76952 9.52638L13.0824 15.8601C13.156 15.9485 13.2665 16 13.3842 16H15.3425C15.5094 16 15.6002 15.8061 15.4922 15.6785L9.0505 8Z"/></g></svg>