<svg xmlns="http://www.w3.org/2000/svg" data-type="solid" viewBox="0 0 18 16" fill="currentColor"><g><path d="M4.6657 12.1506L5.75065 10.7948L2.25797 8.00087L5.75065 5.2069L4.6657 3.85114L0.325893 7.32299C0.224207 7.4043 0.142118 7.50745 0.0857044 7.62479C0.0292913 7.74214 0 7.87067 0 8.00087C0 8.13107 0.0292913 8.2596 0.0857044 8.37694C0.142118 8.49428 0.224207 8.59743 0.325893 8.67875L4.6657 12.1506ZM12.6943 3.85114L11.6094 5.2069L15.1021 8.00087L11.6094 10.7948L12.6943 12.1506L17.0341 8.67875C17.1358 8.59743 17.2179 8.49428 17.2743 8.37694C17.3307 8.2596 17.36 8.13107 17.36 8.00087C17.36 7.87067 17.3307 7.74214 17.2743 7.62479C17.2179 7.50745 17.1358 7.4043 17.0341 7.32299L12.6943 3.85114ZM11.2631 0.376695L7.79123 16L6.0961 15.6233L9.56794 0L11.2631 0.376695Z"/></g></svg>