<svg xmlns="http://www.w3.org/2000/svg" fill="none" data-type="outline" role="img" viewBox="0 0 16 18" stroke="currentColor"><g><path stroke-linecap="round" stroke-width="1.25" d="M10.6658 11.7331C11.676 11.523 12.5925 11.1591 13.3047 10.6245C14.5217 9.71227 15.1436 8.30288 15.1436 6.9103C15.1436 5.93372 14.7734 5.02187 14.1321 4.24952C13.775 3.81922 14.8196 0.607542 13.8914 1.03994C12.9627 1.47276 11.6012 2.43 10.8881 2.21863C10.0866 1.98387 9.25542 1.8657 8.42021 1.86776C7.66383 1.86776 6.93602 1.96146 6.25738 2.13417C5.27072 2.38546 4.32693 1.44755 3.37767 1.03994C2.42799 0.632335 2.94653 3.95369 2.66457 4.30288C2.0498 5.06347 1.69682 5.95642 1.69682 6.9103C1.69682 8.30288 2.449 9.71227 3.66593 10.625C4.47694 11.2326 5.49301 11.62 6.63011 11.8108M6.63011 11.8108C6.14308 12.3466 5.89978 12.8555 5.89978 13.337V17M10.6662 11.7331C11.1272 12.3382 11.3579 12.8819 11.3579 13.3635V17M0.8564 12.0432C1.23417 12.0894 1.51445 12.2634 1.69682 12.5642C1.9708 13.016 2.98855 14.6918 4.14456 14.6918H5.89978"/></g></svg>