<svg xmlns="http://www.w3.org/2000/svg" data-type="solid" role="img" viewBox="0 0 17 16" fill="currentColor"><g><path d="M16.5896 7.87156L9.36928 0.654994L8.88531 0.171025C8.77503 0.0614805 8.62591 0 8.47048 0C8.31504 0 8.16592 0.0614805 8.05564 0.171025L0.351376 7.87156C0.238383 7.98411 0.149083 8.11816 0.0887469 8.26579C0.0284107 8.41342 -0.00173898 8.57164 7.74532e-05 8.73112C0.00755188 9.38887 0.555054 9.91394 1.2128 9.91394H2.00696V16H14.934V9.91394H15.745C16.0645 9.91394 16.3653 9.78875 16.5914 9.56265C16.7028 9.45167 16.791 9.31972 16.851 9.17442C16.9109 9.02912 16.9415 8.87336 16.9409 8.71617C16.9409 8.3985 16.8157 8.09766 16.5896 7.87156ZM9.5169 14.6546H7.42406V10.8426H9.5169V14.6546ZM13.5886 8.56855V14.6546H10.7128V10.3942C10.7128 9.98121 10.3783 9.64673 9.96536 9.64673H6.97559C6.56263 9.64673 6.22815 9.98121 6.22815 10.3942V14.6546H3.35236V8.56855H1.5585L8.47234 1.66031L8.90399 2.09195L15.3843 8.56855H13.5886Z"/></g></svg>