<svg xmlns="http://www.w3.org/2000/svg" data-type="solid" role="img" viewBox="0 0 17 16" fill="currentColor"><g><path fill-rule="evenodd" d="M5.94453 5.5752H8.91639V7.0552C9.34449 6.204 10.4423 5.4392 12.0915 5.4392C15.253 5.4392 16.0036 7.1336 16.0036 10.2424V16H12.8029V10.9504C12.8029 9.18 12.3748 8.1816 11.2849 8.1816C9.77338 8.1816 9.14524 9.2576 9.14524 10.9496V16H5.94453V5.5752ZM0.456102 15.864H3.65682V5.4392H0.456102V15.864ZM4.11532 2.04C4.11544 2.30822 4.06223 2.57379 3.95879 2.82127C3.85536 3.06875 3.70375 3.29321 3.51278 3.4816C3.12582 3.8661 2.60203 4.08132 2.05646 4.08C1.51185 4.07963 0.989269 3.86496 0.601734 3.4824C0.411461 3.29337 0.260367 3.06866 0.15711 2.82115C0.0538532 2.57363 0.000463409 2.30818 0 2.04C0 1.4984 0.216048 0.98 0.602534 0.5976C0.989729 0.214527 1.51253 -0.000239369 2.05726 2.00212e-07C2.60298 2.00212e-07 3.1263 0.2152 3.51278 0.5976C3.89847 0.98 4.11532 1.4984 4.11532 2.04Z" clip-rule="evenodd"/></g></svg>