<svg xmlns="http://www.w3.org/2000/svg" data-type="solid" role="img" viewBox="0 0 15 16" fill="currentColor"><g><g><path d="M6.0001 0.277327C6.09772 0.395941 6.15752 0.541103 6.17178 0.694057C6.18604 0.84701 6.15411 1.00073 6.08011 1.13534C5.50195 2.19683 5.20002 3.38667 5.20209 4.5954C5.20209 8.61647 8.48015 11.8725 12.5202 11.8725C13.0472 11.8725 13.5602 11.8175 14.0532 11.7125C14.2044 11.6798 14.3618 11.6923 14.5059 11.7485C14.6499 11.8047 14.7742 11.9021 14.8633 12.0285C14.9572 12.16 15.0052 12.3188 14.9996 12.4803C14.994 12.6418 14.9351 12.7969 14.8323 12.9215C14.0479 13.885 13.0585 14.6613 11.936 15.1938C10.8136 15.7263 9.58648 16.0016 8.34414 15.9996C3.73406 15.9996 0 12.2855 0 7.70946C0 4.2654 2.11404 1.31134 5.12409 0.059323C5.27403 -0.00404628 5.44048 -0.0170525 5.59845 0.022258C5.75641 0.0615685 5.89735 0.151073 6.0001 0.277327ZM4.85808 1.31034C3.70067 1.93118 2.73308 2.85401 2.05817 3.98075C1.38325 5.10749 1.02622 6.39604 1.02502 7.70946C1.02502 11.7295 4.30407 14.9856 8.34414 14.9856C9.31161 14.9873 10.2698 14.797 11.1632 14.4259C12.0567 14.0548 12.8677 13.5102 13.5492 12.8235C13.2122 12.8655 12.8692 12.8865 12.5202 12.8865C7.91014 12.8865 4.17707 9.17248 4.17707 4.5964C4.17707 3.42938 4.41908 2.31836 4.85808 1.31034Z"/></g></g></svg>