<svg xmlns="http://www.w3.org/2000/svg" data-type="solid" viewBox="0 0 18 16" fill="currentColor"><g><path d="M16.6852 0.029121C16.848 -0.0129776 17.0192 -0.00937056 17.1801 0.0395457C17.341 0.0884619 17.4852 0.180793 17.597 0.306385C17.7088 0.431977 17.7838 0.585965 17.8138 0.751417C17.8437 0.91687 17.8275 1.08738 17.7668 1.24419L12.2811 15.4154C12.2269 15.5558 12.1388 15.6806 12.0248 15.7787C11.9107 15.8769 11.7742 15.9454 11.6273 15.9781C11.4804 16.0108 11.3277 16.0068 11.1828 15.9664C11.0378 15.926 10.9051 15.8504 10.7964 15.7464L7.7043 12.7887L6.60443 13.8877C6.02296 14.4691 5.02823 14.0577 5.02823 13.2349V10.2287L0.28224 5.68938C0.164485 5.57672 0.0789823 5.43464 0.034584 5.27784C-0.00981435 5.12103 -0.0114944 4.95521 0.0297178 4.79754C0.07093 4.63987 0.153537 4.49609 0.268985 4.38107C0.384433 4.26604 0.528527 4.18397 0.686348 4.14335L16.6861 0.029121H16.6852ZM14.7524 3.96506L7.44008 10.0057L11.0697 13.4781L14.7524 3.96506ZM13.3097 2.78565L2.73432 5.50378L6.10981 8.73116L13.3097 2.78382V2.78565Z"/></g></svg>